<?xml version="1.0" encoding="UTF-8"?><svg id="Layer_1" xmlns="http://www.w3.org/2000/svg" xmlns:xlink="http://www.w3.org/1999/xlink" viewBox="0 0 32 32"><defs><style>.cls-1{fill:url(#radial-gradient);}</style><radialGradient id="radial-gradient" cx="18.99" cy="15.94" fx="18.99" fy="15.94" r="20.34" gradientTransform="translate(2.61 34.81) rotate(-89.59) scale(1 1.02)" gradientUnits="userSpaceOnUse"><stop offset=".01" stop-color="#00cfff"/><stop offset=".81" stop-color="#0074ff"/></radialGradient></defs><path class="cls-1" d="M16.44,20.53c-1.87.27-2.44,2.34-1.26,3.17,1.3.92,3.39-.39,3.11-1.94-.13-.74-.7-1.01-.92-1.11,0,0,0,0,0,0-.11-.04-.46-.18-.94-.12M23.03,19.43c-1.48.36-2.12,2.6-.94,3.33,1.13.7,2.71-.82,2.41-2.32-.15-.75-.75-1.17-1.47-1.01M12.5,15.06c-1.82.22-2.28,2.12-1.15,3.07,1.24,1.04,3.26.09,3.13-1.49-.07-.81-.79-1.65-1.99-1.59M24.86,12.96c-.92.35-1.07,1.45-.94,2.11,0,0,0,0,0,0,.34,1.54,1.63,1.8,2.28.83.8-1.2,0-3.17-1.21-2.97-.04,0-.09.02-.13.03M14.95,9.1c-1.47.19-1.85,2.07-.62,3,1.24.93,2.9.02,2.66-1.44-.16-.95-1.09-1.66-2.04-1.56M20.6,8.14c-1.33.36-1.11,2.35.03,3.07,1.15.72,2.28-.2,1.93-1.57-.1-.38-.39-1.08-1.24-1.44,0,0,0,0,0,0-.1-.03-.4-.14-.72-.06M20.23,18.34s0,0-.01,0c0,0,0,0,0,0s0,0,0,0,0,0,0,0,0,0,0,0,0,0,0,0,0,0,0,0,0,0,0,0,0,0,0,0M18.86,18.41s.02,0,.03,0c0,0-.02,0-.03,0M18.8,18.4s.03,0,.04.01c-.01,0-.03,0-.04-.01M21.82,16.5c-.29,1.2-1.11,1.66-1.57,1.84,1.1-.43,1.45-1.33,1.57-1.84M21.74,15.14s0,.02.01.03c0-.01,0-.02-.01-.03M21.24,14.27c.09.1.33.38.5.86-.12-.34-.27-.59-.5-.86M21.15,14.18s.06.06.09.09c-.03-.03-.06-.06-.09-.09M21.11,14.14s.02.01.02.02c0,0-.02-.01-.02-.02M21.07,14.11s.02.01.02.02c0,0-.02-.01-.02-.02M17.5,14.65c-1.01,1.69-.13,3.33,1.29,3.75-1.61-.51-2.21-2.26-1.29-3.75M17.53,14.61s0,.01-.01.02c0,0,0-.01.01-.02M18.22,13.92s0,0-.01,0c0,0,0,0,.01,0M18.27,13.89s-.02,0-.02.01c0,0,.02-.01.02-.01M18.32,13.86s-.02.01-.03.02c.01,0,.02-.01.03-.02M18.37,13.83s-.02.01-.03.02c.01,0,.02-.01.03-.02M18.42,13.8s-.02,0-.03.01c0,0,.02,0,.03-.01M18.48,13.77s-.01,0-.02.01c0,0,.01,0,.02-.01M18.52,13.75s0,0,0,0c0,0,0,0,0,0s0,0,0,0,0,0,0,0,0,0,0,0,0,0,0,0,0,0,0,0,0,0,0,0,0,0,0,0M19.55,13.51c.59.02,1.06.2,1.51.58-.64-.57-1.29-.58-1.51-.58M19.5,13.51s.01,0,.02,0c0,0-.01,0-.02,0M13.63,25.44c-1.42.15-2.01,1.52-1.24,2.18.94.81,2.8-.07,2.66-1.26-.07-.59-.68-.99-1.42-.93M24.99,23.54c-1.07.32-1.76,2.07-.98,2.49.81.45,2.14-1.12,1.8-2.11-.09-.27-.35-.51-.82-.38M7.13,15.63c-1.47.09-1.93,1.59-1.05,2.4.95.88,2.61.22,2.58-1.03-.02-.77-.71-1.38-1.53-1.37M28.11,12.08c-.87.51-.46,2.6.32,2.79.8.2,1.13-1.42.5-2.41-.11-.17-.41-.56-.82-.38M11.86,5.61c-.22.02-.38.09-.55.22,0,0,0,0,0,0-.94.83-.19,2.28.91,2.34,1.12.06,1.57-1.21.74-2.09-.14-.15-.54-.5-1.1-.46M20.55,4.13c-.88.3-.29,1.89.65,2.33.8.38,1.34-.23.99-1.12-.3-.77-1.11-1.37-1.64-1.21M10.74,29.7c-.85.06-1.22.8-.77,1.17.55.45,1.68,0,1.6-.65-.04-.32-.4-.55-.84-.52M25.79,27.18c-.64.23-1.12,1.26-.78,1.42.39.19,1.26-.82,1.12-1.3-.04-.14-.16-.18-.34-.12M1.98,16.07c-.89,0-1.22.94-.72,1.47.56.59,1.58.23,1.61-.55.01-.48-.38-.89-.89-.91M30.37,11.27c-.38.37,0,1.76.35,1.77.38.02.32-1.26-.07-1.7-.14-.16-.24-.09-.27-.07M9.3,2.56c-.57.04-.74.86-.26,1.29.46.41,1.09.13,1.06-.47-.02-.44-.41-.83-.8-.82M19.71.8c-.41.17.17,1.06.73,1.3.02,0,.05.02.07.03,0,0,0,0,0,0,.43.14.52-.16.35-.52-.23-.47-.85-.91-1.14-.8M19.17,13.54c1.26-.21,2.43.65,2.67,1.96.4,2.21-1.94,3.82-3.74,2.56-1.81-1.26-1.12-4.13,1.08-4.52M19.85,26.08c-1.28.22-2.08,1.73-1.21,2.27.9.56,2.51-.58,2.32-1.65-.06-.35-.39-.73-1.11-.62M9.04,21.69c-1.36.06-2.06,1.49-1.15,2.35.96.91,2.76.2,2.7-1.07-.03-.74-.71-1.3-1.55-1.28M28.22,18.07c-1.01.48-1.12,2.58-.4,2.84.77.27,1.57-1.53,1.1-2.51-.16-.33-.43-.45-.71-.33M8.45,9.99c-1.31.08-1.7,1.54-.9,2.32.87.84,2.33.31,2.36-.87.02-.78-.67-1.47-1.46-1.44M24.95,6.89c-.77.34-.25,2.18.71,2.53.72.26,1.08-.58.66-1.53-.32-.71-.95-1.17-1.38-1M15.86,3.69c-.9.15-.84,1.56.1,2.2.85.58,1.75.1,1.56-.83-.14-.7-.91-1.46-1.66-1.36M18.95,30.49c-.73.13-1.32.93-.88,1.21.47.3,1.54-.4,1.45-.95-.01-.08-.09-.34-.57-.26M4.43,24.7c-.81,0-1.24.77-.73,1.31.56.59,1.65.31,1.69-.43.03-.46-.41-.86-.96-.88M30.43,19.78c-.43.3-.7,1.7-.33,1.76.36.06.81-1.32.56-1.72-.08-.12-.18-.07-.23-.05M4.45,8.26c-.81,0-1.1.98-.6,1.44.53.5,1.42.06,1.38-.68-.03-.42-.37-.76-.77-.76M25.79,4.26c-.35.23.28,1.41.79,1.5.35.06.35-.48-.01-1-.23-.33-.58-.61-.78-.5M14,.23c-.44.08-.32.79.2,1.17.46.34.91.19.84-.28-.07-.46-.63-.95-1.03-.9"/></svg>