<?xml version="1.0" encoding="UTF-8"?><svg id="Layer_1" xmlns="http://www.w3.org/2000/svg" xmlns:xlink="http://www.w3.org/1999/xlink" viewBox="0 0 193.61 46.15"><defs><style>.cls-1{fill:url(#radial-gradient);}.cls-2{fill:#17171a;}</style><radialGradient id="radial-gradient" cx="26.46" cy="23.03" fx="26.46" fy="23.03" r="29.57" gradientTransform="translate(2.8 49.33) rotate(-89.59) scale(1 1.02)" gradientUnits="userSpaceOnUse"><stop offset=".01" stop-color="#00cbff"/><stop offset=".81" stop-color="#2971ff"/></radialGradient></defs><path class="cls-2" d="M82.79,18.56c0,4.89-3,7.54-8.44,7.54h-9.28v8.69h-4.22V11.05h13.5c5.44,0,8.44,2.65,8.44,7.5ZM78.46,18.56c0-2.62-1.54-3.87-4.71-3.87h-8.69v7.78h8.69c3.17,0,4.71-1.26,4.71-3.91Z"/><path class="cls-2" d="M107.8,31.15v3.63h-16.62c-2.06,0-3.73-1.67-3.73-3.73V11.05h4.22v20.1h16.12Z"/><path class="cls-2" d="M111.42,26.09v-15.04h4.22v14.34c0,4.05,2.34,6.04,7.01,6.04s6.98-1.99,6.98-6.04v-14.34h4.05v15.04c0,5.83-4.01,9.11-11.13,9.11s-11.13-3.28-11.13-9.11Z"/><path class="cls-2" d="M158.52,34.78l-6.49-9.28h-7.68v9.28h-4.22V11.05h14.17c5.23,0,8.09,2.55,8.09,7.22,0,3.84-1.95,6.25-5.55,6.98l6.7,9.53h-5.02ZM144.35,21.87h9.35c2.97,0,4.4-1.19,4.4-3.59s-1.43-3.59-4.4-3.59h-9.35v7.19Z"/><path class="cls-2" d="M185.95,29.09h-11.93l-2.55,5.69h-4.43l9.99-21.78c.55-1.19,1.73-1.95,3.04-1.95h0c1.31,0,2.5.76,3.04,1.95l9.99,21.78h-4.61l-2.55-5.69ZM175.58,25.53h8.79l-4.4-10.12-4.4,10.12Z"/><path class="cls-1" d="M22.76,29.72c-2.71.4-3.54,3.4-1.83,4.61,1.89,1.34,4.93-.57,4.52-2.83-.19-1.07-1.02-1.46-1.33-1.61,0,0,0,0,0,0-.17-.06-.67-.26-1.36-.17M32.34,28.11c-2.16.53-3.08,3.78-1.37,4.84,1.65,1.01,3.94-1.19,3.51-3.37-.22-1.09-1.1-1.7-2.14-1.47M17.03,21.75c-2.64.32-3.32,3.08-1.67,4.47,1.81,1.52,4.74.12,4.55-2.16-.1-1.18-1.14-2.39-2.89-2.31M35,18.71c-1.34.51-1.56,2.11-1.37,3.06,0,0,0,0,0,0,.49,2.23,2.36,2.62,3.31,1.21,1.17-1.74,0-4.6-1.75-4.31-.06,0-.13.03-.19.04M20.59,13.1c-2.13.28-2.69,3.01-.9,4.36,1.8,1.35,4.21.04,3.86-2.09-.23-1.38-1.59-2.42-2.96-2.27M28.8,11.7c-1.93.52-1.62,3.41.05,4.46,1.67,1.05,3.31-.29,2.8-2.28-.14-.56-.57-1.57-1.8-2.09,0,0,0,0,0,0-.14-.05-.58-.2-1.05-.09M28.27,26.53s-.01,0-.02,0c0,0,0,0,0,0s0,0,0,0,0,0,0,0,0,0,0,0,0,0,0,0,0,0,0,0,0,0,0,0,0,0,0,0M26.28,26.63s.03,0,.04,0c-.01,0-.03,0-.04,0M26.19,26.61s.04.01.06.02c-.02,0-.04-.01-.06-.02M30.58,23.86c-.42,1.74-1.61,2.42-2.28,2.67,1.6-.62,2.11-1.94,2.28-2.67M30.46,21.87s.01.03.02.05c0-.02,0-.03-.02-.05M29.73,20.61c.13.15.49.55.73,1.24-.17-.49-.39-.86-.73-1.24M29.6,20.47s.09.09.13.14c-.04-.05-.09-.09-.13-.14M29.55,20.43s.02.02.03.03c-.01-.01-.02-.02-.03-.03M29.49,20.37s.02.02.03.03c-.01-.01-.02-.02-.03-.03M24.31,21.16c-1.46,2.45-.18,4.84,1.88,5.44-2.34-.73-3.22-3.28-1.88-5.44M24.35,21.1s-.01.02-.02.03c0-.01.01-.02.02-.03M25.35,20.11s-.01,0-.02.01c0,0,.01,0,.02-.01M25.42,20.06s-.02.01-.03.02c.01,0,.02-.01.03-.02M25.49,20.01s-.03.02-.04.03c.01,0,.03-.02.04-.03M25.57,19.97s-.03.02-.04.03c.01,0,.03-.02.04-.03M25.64,19.92s-.03.01-.04.02c.01,0,.03-.01.04-.02M25.72,19.89s-.02,0-.03.01c0,0,.02,0,.03-.01M25.79,19.85s0,0-.01,0c0,0,0,0,0,0s0,0,0,0,0,0,0,0,0,0,0,0,0,0,0,0,0,0,0,0,0,0,0,0,0,0,0,0M27.28,19.5c.86.02,1.54.28,2.2.85-.92-.82-1.88-.84-2.2-.85M27.21,19.51s.02,0,.03,0c0,0-.02,0-.03,0M18.67,36.85c-2.06.22-2.92,2.21-1.81,3.17,1.37,1.17,4.07-.11,3.86-1.82-.11-.86-.99-1.44-2.06-1.35M35.18,34.09c-1.55.47-2.55,3.01-1.43,3.62,1.18.65,3.11-1.62,2.62-3.07-.13-.39-.51-.73-1.19-.55M9.23,22.59c-2.14.13-2.8,2.31-1.53,3.49,1.38,1.28,3.79.32,3.75-1.5-.03-1.11-1.02-2.01-2.22-2M39.72,17.43c-1.27.74-.67,3.78.46,4.06,1.16.29,1.65-2.07.73-3.5-.16-.25-.6-.81-1.19-.56M16.09,8.03c-.32.03-.56.12-.8.31,0,0,0,0,0,0-1.36,1.2-.28,3.32,1.32,3.4,1.63.09,2.28-1.76,1.08-3.04-.21-.22-.78-.73-1.6-.67M28.74,5.88c-1.29.43-.42,2.74.95,3.39,1.16.55,1.94-.33,1.44-1.63-.44-1.12-1.62-1.99-2.39-1.76M14.47,43.04c-1.24.09-1.78,1.16-1.11,1.7.8.65,2.44-.01,2.33-.94-.05-.47-.58-.8-1.22-.76M36.34,39.38c-.93.34-1.63,1.82-1.14,2.07.56.28,1.83-1.19,1.63-1.89-.06-.2-.24-.26-.49-.18M1.74,23.23c-1.3,0-1.78,1.36-1.04,2.13.82.85,2.3.34,2.33-.81.02-.7-.56-1.29-1.29-1.33M43.01,16.26c-.56.54,0,2.55.5,2.58.55.02.47-1.83-.11-2.47-.21-.24-.35-.14-.4-.1M12.38,3.6c-.83.06-1.07,1.25-.37,1.88.66.6,1.58.19,1.54-.69-.03-.65-.59-1.21-1.16-1.19M27.52,1.03c-.59.25.24,1.53,1.06,1.89.03.01.07.03.1.04,0,0,0,0,0,0,.62.21.76-.23.5-.75-.34-.69-1.24-1.32-1.65-1.17M26.72,19.55c1.83-.31,3.53.94,3.88,2.85.58,3.22-2.82,5.55-5.44,3.72-2.63-1.83-1.63-6.01,1.56-6.57M27.72,37.78c-1.85.32-3.02,2.51-1.76,3.3,1.31.82,3.65-.84,3.37-2.4-.09-.51-.57-1.06-1.61-.9M12,31.39c-1.98.09-2.99,2.16-1.67,3.42,1.4,1.33,4.01.29,3.93-1.56-.05-1.07-1.04-1.89-2.26-1.86M39.88,26.13c-1.47.69-1.64,3.75-.57,4.12,1.12.39,2.28-2.23,1.61-3.64-.23-.47-.62-.66-1.03-.48M11.14,14.39c-1.9.11-2.47,2.24-1.31,3.36,1.27,1.23,3.38.44,3.43-1.27.03-1.14-.98-2.14-2.12-2.1M35.13,9.89c-1.12.49-.36,3.17,1.04,3.68,1.04.38,1.57-.85.96-2.22-.46-1.03-1.38-1.7-2-1.46M21.92,5.24c-1.32.21-1.22,2.27.14,3.19,1.24.84,2.54.14,2.27-1.21-.2-1.02-1.32-2.13-2.41-1.98M26.41,44.19c-1.06.19-1.91,1.35-1.28,1.76.68.44,2.24-.58,2.1-1.38-.02-.12-.14-.49-.83-.38M5.3,35.76c-1.18,0-1.81,1.11-1.07,1.9.81.86,2.4.45,2.46-.63.04-.67-.6-1.25-1.4-1.27M43.1,28.62c-.63.44-1.01,2.48-.48,2.56.52.09,1.18-1.92.81-2.5-.11-.18-.27-.11-.33-.07M5.34,11.88c-1.18.01-1.6,1.42-.88,2.09.78.73,2.07.09,2-.98-.04-.61-.53-1.1-1.12-1.11M36.35,6.07c-.5.33.4,2.04,1.15,2.18.52.09.51-.7-.02-1.46-.33-.49-.85-.89-1.14-.72M19.22.2c-.64.11-.46,1.15.29,1.71.67.49,1.33.28,1.22-.4-.11-.67-.92-1.38-1.5-1.3"/></svg>